<?xml version="1.0" encoding="UTF-8"?>
<svg width="400" height="400" viewBox="0 0 400 400" fill="none" xmlns="http://www.w3.org/2000/svg">
  <!-- Fondo con patrón de puntos -->
  <rect width="400" height="400" fill="#FFF3E9" opacity="0.1"/>
  
  <!-- Patrón de puntos decorativos -->
  <g opacity="0.2">
    <circle cx="50" cy="50" r="3" fill="#573353"/>
    <circle cx="100" cy="50" r="3" fill="#573353"/>
    <circle cx="150" cy="50" r="3" fill="#573353"/>
    <circle cx="200" cy="50" r="3" fill="#573353"/>
    <circle cx="250" cy="50" r="3" fill="#573353"/>
    <circle cx="300" cy="50" r="3" fill="#573353"/>
    <circle cx="350" cy="50" r="3" fill="#573353"/>
    
    <circle cx="50" cy="100" r="3" fill="#573353"/>
    <circle cx="100" cy="100" r="3" fill="#573353"/>
    <circle cx="150" cy="100" r="3" fill="#573353"/>
    <circle cx="200" cy="100" r="3" fill="#573353"/>
    <circle cx="250" cy="100" r="3" fill="#573353"/>
    <circle cx="300" cy="100" r="3" fill="#573353"/>
    <circle cx="350" cy="100" r="3" fill="#573353"/>
    
    <circle cx="50" cy="150" r="3" fill="#573353"/>
    <circle cx="100" cy="150" r="3" fill="#573353"/>
    <circle cx="150" cy="150" r="3" fill="#573353"/>
    <circle cx="200" cy="150" r="3" fill="#573353"/>
    <circle cx="250" cy="150" r="3" fill="#573353"/>
    <circle cx="300" cy="150" r="3" fill="#573353"/>
    <circle cx="350" cy="150" r="3" fill="#573353"/>
    
    <circle cx="50" cy="200" r="3" fill="#573353"/>
    <circle cx="100" cy="200" r="3" fill="#573353"/>
    <circle cx="150" cy="200" r="3" fill="#573353"/>
    <circle cx="200" cy="200" r="3" fill="#573353"/>
    <circle cx="250" cy="200" r="3" fill="#573353"/>
    <circle cx="300" cy="200" r="3" fill="#573353"/>
    <circle cx="350" cy="200" r="3" fill="#573353"/>
    
    <circle cx="50" cy="250" r="3" fill="#573353"/>
    <circle cx="100" cy="250" r="3" fill="#573353"/>
    <circle cx="150" cy="250" r="3" fill="#573353"/>
    <circle cx="200" cy="250" r="3" fill="#573353"/>
    <circle cx="250" cy="250" r="3" fill="#573353"/>
    <circle cx="300" cy="250" r="3" fill="#573353"/>
    <circle cx="350" cy="250" r="3" fill="#573353"/>
    
    <circle cx="50" cy="300" r="3" fill="#573353"/>
    <circle cx="100" cy="300" r="3" fill="#573353"/>
    <circle cx="150" cy="300" r="3" fill="#573353"/>
    <circle cx="200" cy="300" r="3" fill="#573353"/>
    <circle cx="250" cy="300" r="3" fill="#573353"/>
    <circle cx="300" cy="300" r="3" fill="#573353"/>
    <circle cx="350" cy="300" r="3" fill="#573353"/>
    
    <circle cx="50" cy="350" r="3" fill="#573353"/>
    <circle cx="100" cy="350" r="3" fill="#573353"/>
    <circle cx="150" cy="350" r="3" fill="#573353"/>
    <circle cx="200" cy="350" r="3" fill="#573353"/>
    <circle cx="250" cy="350" r="3" fill="#573353"/>
    <circle cx="300" cy="350" r="3" fill="#573353"/>
    <circle cx="350" cy="350" r="3" fill="#573353"/>
  </g>
  
  <!-- Líneas de conexión entre secciones -->
  <path d="M100 100 L200 200 L300 100" stroke="#FDA758" stroke-width="2" stroke-dasharray="5 5" opacity="0.5"/>
  <path d="M100 300 L200 200 L300 300" stroke="#FDA758" stroke-width="2" stroke-dasharray="5 5" opacity="0.5"/>
  
  <!-- Iconos de secciones (simplificados) -->
  <!-- Entrenamiento (arriba izquierda) -->
  <circle cx="100" cy="100" r="30" fill="#1B237E" opacity="0.2"/>
  <rect x="85" y="85" width="30" height="30" rx="5" stroke="#1B237E" stroke-width="2" fill="none"/>
  
  <!-- Nutrición (arriba derecha) -->
  <circle cx="300" cy="100" r="30" fill="#FEA800" opacity="0.2"/>
  <circle cx="300" cy="100" r="15" stroke="#FEA800" stroke-width="2" fill="none"/>
  <path d="M300 85 L300 115" stroke="#FEA800" stroke-width="2"/>
  <path d="M285 100 L315 100" stroke="#FEA800" stroke-width="2"/>
  
  <!-- Sueño (centro) -->
  <circle cx="200" cy="200" r="35" fill="#B1AFE9" opacity="0.2"/>
  <path d="M185 200 Q200 180 215 200 Q200 220 185 200 Z" stroke="#573353" stroke-width="2" fill="none"/>
  
  <!-- Productividad (abajo izquierda) -->
  <circle cx="100" cy="300" r="30" fill="#FF6767" opacity="0.2"/>
  <path d="M85 300 L115 300" stroke="#FF6767" stroke-width="2"/>
  <path d="M100 285 L100 315" stroke="#FF6767" stroke-width="2"/>
  
  <!-- Bienestar (abajo derecha) -->
  <circle cx="300" cy="300" r="30" fill="#DDDCFE" opacity="0.2"/>
  <path d="M285 300 Q300 285 315 300 Q300 315 285 300 Z" stroke="#573353" stroke-width="2" fill="none"/>
</svg>
