<?xml version="1.0" encoding="UTF-8"?>
<svg width="300" height="300" viewBox="0 0 300 300" fill="none" xmlns="http://www.w3.org/2000/svg">
  <!-- Fondo decorativo -->
  <circle cx="150" cy="150" r="120" fill="#DDDCFE" opacity="0.2"/>
  
  <!-- Calendario -->
  <rect x="50" y="70" width="200" height="180" rx="10" fill="white" stroke="#573353" stroke-width="2"/>
  
  <!-- Encabezado del calendario -->
  <rect x="50" y="70" width="200" height="30" rx="10" fill="#1B237E"/>
  <text x="150" y="90" text-anchor="middle" font-family="Arial" font-size="14" font-weight="bold" fill="white">Mi Progreso</text>
  
  <!-- Días de la semana -->
  <text x="65" y="115" font-family="Arial" font-size="10" fill="#573353">L</text>
  <text x="95" y="115" font-family="Arial" font-size="10" fill="#573353">M</text>
  <text x="125" y="115" font-family="Arial" font-size="10" fill="#573353">X</text>
  <text x="155" y="115" font-family="Arial" font-size="10" fill="#573353">J</text>
  <text x="185" y="115" font-family="Arial" font-size="10" fill="#573353">V</text>
  <text x="215" y="115" font-family="Arial" font-size="10" fill="#573353">S</text>
  <text x="245" y="115" font-family="Arial" font-size="10" fill="#573353">D</text>
  
  <!-- Línea separadora -->
  <line x1="50" y1="120" x2="250" y2="120" stroke="#573353" stroke-width="1"/>
  
  <!-- Semana 1 -->
  <!-- Día 1 - Completado con ejercicio -->
  <rect x="55" y="125" width="20" height="20" rx="3" fill="#4CAF50" opacity="0.2" stroke="#4CAF50"/>
  <text x="65" y="140" text-anchor="middle" font-family="Arial" font-size="12" fill="#573353">1</text>
  <circle cx="65" cy="135" r="8" fill="#4CAF50" opacity="0.5"/>
  <path d="M60 135 L63 138 L70 131" stroke="white" stroke-width="2" stroke-linecap="round" stroke-linejoin="round"/>
  
  <!-- Día 2 - Completado con nutrición -->
  <rect x="85" y="125" width="20" height="20" rx="3" fill="#FEA800" opacity="0.2" stroke="#FEA800"/>
  <text x="95" y="140" text-anchor="middle" font-family="Arial" font-size="12" fill="#573353">2</text>
  <circle cx="95" cy="135" r="8" fill="#FEA800" opacity="0.5"/>
  <path d="M90 135 L93 138 L100 131" stroke="white" stroke-width="2" stroke-linecap="round" stroke-linejoin="round"/>
  
  <!-- Día 3 - Completado con descanso -->
  <rect x="115" y="125" width="20" height="20" rx="3" fill="#B1AFE9" opacity="0.2" stroke="#B1AFE9"/>
  <text x="125" y="140" text-anchor="middle" font-family="Arial" font-size="12" fill="#573353">3</text>
  <circle cx="125" cy="135" r="8" fill="#B1AFE9" opacity="0.5"/>
  <path d="M120 135 L123 138 L130 131" stroke="white" stroke-width="2" stroke-linecap="round" stroke-linejoin="round"/>
  
  <!-- Día 4 - Completado con ejercicio -->
  <rect x="145" y="125" width="20" height="20" rx="3" fill="#4CAF50" opacity="0.2" stroke="#4CAF50"/>
  <text x="155" y="140" text-anchor="middle" font-family="Arial" font-size="12" fill="#573353">4</text>
  <circle cx="155" cy="135" r="8" fill="#4CAF50" opacity="0.5"/>
  <path d="M150 135 L153 138 L160 131" stroke="white" stroke-width="2" stroke-linecap="round" stroke-linejoin="round"/>
  
  <!-- Día 5 - Completado con nutrición -->
  <rect x="175" y="125" width="20" height="20" rx="3" fill="#FEA800" opacity="0.2" stroke="#FEA800"/>
  <text x="185" y="140" text-anchor="middle" font-family="Arial" font-size="12" fill="#573353">5</text>
  <circle cx="185" cy="135" r="8" fill="#FEA800" opacity="0.5"/>
  <path d="M180 135 L183 138 L190 131" stroke="white" stroke-width="2" stroke-linecap="round" stroke-linejoin="round"/>
  
  <!-- Día 6 - Completado con descanso -->
  <rect x="205" y="125" width="20" height="20" rx="3" fill="#B1AFE9" opacity="0.2" stroke="#B1AFE9"/>
  <text x="215" y="140" text-anchor="middle" font-family="Arial" font-size="12" fill="#573353">6</text>
  <circle cx="215" cy="135" r="8" fill="#B1AFE9" opacity="0.5"/>
  <path d="M210 135 L213 138 L220 131" stroke="white" stroke-width="2" stroke-linecap="round" stroke-linejoin="round"/>
  
  <!-- Día 7 - Completado con ejercicio -->
  <rect x="235" y="125" width="20" height="20" rx="3" fill="#4CAF50" opacity="0.2" stroke="#4CAF50"/>
  <text x="245" y="140" text-anchor="middle" font-family="Arial" font-size="12" fill="#573353">7</text>
  <circle cx="245" cy="135" r="8" fill="#4CAF50" opacity="0.5"/>
  <path d="M240 135 L243 138 L250 131" stroke="white" stroke-width="2" stroke-linecap="round" stroke-linejoin="round"/>
  
  <!-- Semana 2 -->
  <!-- Día 8 - Completado con nutrición -->
  <rect x="55" y="155" width="20" height="20" rx="3" fill="#FEA800" opacity="0.2" stroke="#FEA800"/>
  <text x="65" y="170" text-anchor="middle" font-family="Arial" font-size="12" fill="#573353">8</text>
  <circle cx="65" cy="165" r="8" fill="#FEA800" opacity="0.5"/>
  <path d="M60 165 L63 168 L70 161" stroke="white" stroke-width="2" stroke-linecap="round" stroke-linejoin="round"/>
  
  <!-- Día 9 - Completado con ejercicio -->
  <rect x="85" y="155" width="20" height="20" rx="3" fill="#4CAF50" opacity="0.2" stroke="#4CAF50"/>
  <text x="95" y="170" text-anchor="middle" font-family="Arial" font-size="12" fill="#573353">9</text>
  <circle cx="95" cy="165" r="8" fill="#4CAF50" opacity="0.5"/>
  <path d="M90 165 L93 168 L100 161" stroke="white" stroke-width="2" stroke-linecap="round" stroke-linejoin="round"/>
  
  <!-- Día 10 - Hoy -->
  <rect x="115" y="155" width="20" height="20" rx="3" fill="#FF6767" opacity="0.2" stroke="#FF6767" stroke-width="2"/>
  <text x="125" y="170" text-anchor="middle" font-family="Arial" font-size="12" font-weight="bold" fill="#573353">10</text>
  
  <!-- Días restantes -->
  <rect x="145" y="155" width="20" height="20" rx="3" fill="white" stroke="#573353" stroke-width="1"/>
  <text x="155" y="170" text-anchor="middle" font-family="Arial" font-size="12" fill="#573353">11</text>
  
  <rect x="175" y="155" width="20" height="20" rx="3" fill="white" stroke="#573353" stroke-width="1"/>
  <text x="185" y="170" text-anchor="middle" font-family="Arial" font-size="12" fill="#573353">12</text>
  
  <rect x="205" y="155" width="20" height="20" rx="3" fill="white" stroke="#573353" stroke-width="1"/>
  <text x="215" y="170" text-anchor="middle" font-family="Arial" font-size="12" fill="#573353">13</text>
  
  <rect x="235" y="155" width="20" height="20" rx="3" fill="white" stroke="#573353" stroke-width="1"/>
  <text x="245" y="170" text-anchor="middle" font-family="Arial" font-size="12" fill="#573353">14</text>
  
  <!-- Celebración de logros -->
  <circle cx="150" cy="210" r="25" fill="#FEA800" opacity="0.2"/>
  <text x="150" y="215" text-anchor="middle" font-family="Arial" font-size="14" font-weight="bold" fill="#573353">¡9/14!</text>
  
  <!-- Estrellas de celebración -->
  <path d="M100 210 L103 200 L106 210 L96 204 L116 204 Z" fill="#FF6767"/>
  <path d="M200 210 L203 200 L206 210 L196 204 L216 204 Z" fill="#FF6767"/>
  
  <!-- Texto motivacional -->
  <text x="150" y="245" text-anchor="middle" font-family="Arial" font-size="14" font-weight="bold" fill="#573353">¡Vas por buen camino!</text>
</svg>
