<?xml version="1.0" encoding="UTF-8"?>
<svg width="414" height="896" viewBox="0 0 414 896" fill="none" xmlns="http://www.w3.org/2000/svg">
  <!-- Background -->
  <rect width="414" height="896" fill="#FFF3E9"/>
  
  <!-- Decorative shapes -->
  <path d="M60 120C80 100 120 140 100 180C80 220 20 200 40 160C60 120 40 140 60 120Z" fill="#E57373" opacity="0.5"/>
  <path d="M350 150C380 130 400 170 380 200C360 230 320 210 330 180C340 150 320 170 350 150Z" fill="#FF9800" opacity="0.5"/>
  <path d="M280 250C310 230 330 270 310 300C290 330 250 310 260 280C270 250 250 270 280 250Z" fill="#FFCC80" opacity="0.3"/>
  <path d="M100 300C130 280 150 320 130 350C110 380 70 360 80 330C90 300 70 320 100 300Z" fill="#F48FB1" opacity="0.4"/>
  <path d="M200 200C230 180 250 220 230 250C210 280 170 260 180 230C190 200 170 220 200 200Z" fill="#CE93D8" opacity="0.3"/>
  
  <!-- Mountains -->
  <path d="M0 600L100 450L200 550L300 400L414 500V896H0V600Z" fill="#9FA8DA" opacity="0.7"/>
  <path d="M0 650L100 500L200 600L300 450L414 550V896H0V650Z" fill="#7986CB" opacity="0.8"/>
  <path d="M0 700L100 550L200 650L300 500L414 600V896H0V700Z" fill="#5C6BC0" opacity="0.9"/>
  
  <!-- Clouds -->
  <ellipse cx="150" cy="500" rx="50" ry="20" fill="white" opacity="0.7"/>
  <ellipse cx="300" cy="480" rx="60" ry="25" fill="white" opacity="0.7"/>
  <ellipse cx="80" cy="520" rx="40" ry="15" fill="white" opacity="0.7"/>
  <ellipse cx="350" cy="530" rx="30" ry="12" fill="white" opacity="0.7"/>
  
  <!-- Hiker silhouette -->
  <g transform="translate(250, 500) scale(1.2)">
    <!-- Backpack -->
    <rect x="-10" y="-20" width="30" height="40" rx="5" fill="#FDA758"/>
    
    <!-- Body -->
    <rect x="-5" y="20" width="20" height="60" fill="#3949AB"/>
    
    <!-- Head -->
    <circle cx="5" cy="-30" r="15" fill="#FFAB91"/>
    
    <!-- Hat -->
    <path d="M-10 -40 H20 V-30 H-10 Z" fill="#FF5722"/>
    <path d="M-5 -30 H15 V-25 H-5 Z" fill="#FF5722"/>
    
    <!-- Legs -->
    <rect x="-15" y="80" width="15" height="60" fill="#3949AB"/>
    <rect x="10" y="80" width="15" height="60" fill="#3949AB"/>
    
    <!-- Boots -->
    <rect x="-20" y="140" width="20" height="15" fill="#795548"/>
    <rect x="10" y="140" width="20" height="15" fill="#795548"/>
    
    <!-- Arms -->
    <rect x="-25" y="25" width="15" height="40" rx="5" fill="#3949AB"/>
    <rect x="20" y="25" width="15" height="40" rx="5" fill="#3949AB"/>
  </g>
</svg>
