<?xml version="1.0" encoding="UTF-8"?>
<svg width="414" height="896" viewBox="0 0 414 896" fill="none" xmlns="http://www.w3.org/2000/svg">
  <!-- Background -->
  <rect width="414" height="896" fill="#FFFFFF"/>
  
  <!-- Decorative shapes -->
  <path d="M60 120C80 100 120 140 100 180C80 220 20 200 40 160C60 120 40 140 60 120Z" fill="#E57373" opacity="0.5"/>
  <path d="M350 150C380 130 400 170 380 200C360 230 320 210 330 180C340 150 320 170 350 150Z" fill="#FF9800" opacity="0.5"/>
  <path d="M280 250C310 230 330 270 310 300C290 330 250 310 260 280C270 250 250 270 280 250Z" fill="#FFCC80" opacity="0.3"/>
  <path d="M100 300C130 280 150 320 130 350C110 380 70 360 80 330C90 300 70 320 100 300Z" fill="#F48FB1" opacity="0.4"/>
  <path d="M200 200C230 180 250 220 230 250C210 280 170 260 180 230C190 200 170 220 200 200Z" fill="#CE93D8" opacity="0.3"/>
  
  <!-- Person silhouette -->
  <g transform="translate(200, 300) scale(1.5)">
    <!-- Head -->
    <circle cx="0" cy="-30" r="15" fill="#FFAB91"/>
    
    <!-- Hat -->
    <path d="M-15 -40 H15 V-30 H-15 Z" fill="#FF5722"/>
    <path d="M-10 -30 H10 V-25 H-10 Z" fill="#FF5722"/>
    
    <!-- Body -->
    <rect x="-15" y="-15" width="30" height="60" rx="5" fill="#FDA758"/>
    
    <!-- Legs -->
    <rect x="-15" y="45" width="12" height="60" fill="#3949AB"/>
    <rect x="3" y="45" width="12" height="60" fill="#3949AB"/>
    
    <!-- Boots -->
    <rect x="-20" y="105" width="17" height="15" fill="#795548"/>
    <rect x="3" y="105" width="17" height="15" fill="#795548"/>
    
    <!-- Arms -->
    <rect x="-35" y="-5" width="20" height="10" rx="5" fill="#FDA758"/>
    <rect x="15" y="-5" width="20" height="10" rx="5" fill="#FDA758"/>
    
    <!-- Face features -->
    <circle cx="-5" cy="-35" r="2" fill="#573353"/>
    <circle cx="5" cy="-35" r="2" fill="#573353"/>
    <path d="M-5 -25 Q0 -20 5 -25" stroke="#573353" stroke-width="1.5" fill="none"/>
  </g>
</svg>
