<?xml version="1.0" encoding="UTF-8" standalone="no"?>
<svg width="400" height="400" viewBox="0 0 400 400" fill="none" xmlns="http://www.w3.org/2000/svg">
  <!-- Head -->
  <circle cx="120" cy="150" r="40" fill="#F27C7D"/>
  <path d="M120 110 C100 110 85 125 85 145 C85 165 100 180 120 180" fill="#EC4728"/>
  
  <!-- Face -->
  <circle cx="110" cy="140" r="5" fill="#461C34"/>
  <circle cx="130" cy="140" r="5" fill="#461C34"/>
  <path d="M115 155 C120 160 125 160 130 155" stroke="#F05A53" stroke-width="2" stroke-linecap="round"/>
  
  <!-- Body -->
  <path d="M100 190 L140 190 L150 300 L90 300 Z" fill="#FBB666"/>
  <path d="M100 190 L120 190 L110 300 L90 300 Z" fill="#F69241"/>
  <rect x="105" y="210" width="30" height="60" rx="5" fill="#B22878"/>
  
  <!-- Arms -->
  <path d="M100 200 C80 210 70 230 75 260" stroke="#F89E44" stroke-width="20" stroke-linecap="round"/>
  <path d="M140 200 C160 210 170 230 165 260" stroke="#F89E44" stroke-width="20" stroke-linecap="round"/>
  
  <!-- Clock -->
  <circle cx="250" cy="120" r="50" fill="#E3E0FD"/>
  <circle cx="250" cy="120" r="45" fill="#FFFFFF" stroke="#19207D" stroke-width="2"/>
  <line x1="250" y1="120" x2="250" y2="90" stroke="#19207D" stroke-width="3" stroke-linecap="round"/>
  <line x1="250" y1="120" x2="270" y2="120" stroke="#19207D" stroke-width="3" stroke-linecap="round"/>
  
  <!-- Arrow -->
  <path d="M200 220 L300 220 L280 200 M300 220 L280 240" stroke="#ED4527" stroke-width="5" stroke-linecap="round" stroke-linejoin="round"/>
  
  <!-- Boxes -->
  <rect x="220" y="300" width="30" height="30" rx="5" fill="#ECEEFB"/>
  <rect x="260" y="300" width="30" height="30" rx="5" fill="#FAA65A"/>
  <rect x="300" y="300" width="30" height="30" rx="5" fill="#ECEEFB"/>
  
  <!-- Checklist -->
  <rect x="265" y="305" width="20" height="20" rx="2" fill="#FFFFFF" stroke="#573353" stroke-width="1"/>
  <path d="M270 315 L275 320 L280 310" stroke="#573353" stroke-width="2" stroke-linecap="round" stroke-linejoin="round"/>
  
  <!-- Ornaments -->
  <circle cx="320" cy="150" r="20" fill="#F0CBDD" opacity="0.7"/>
  <rect x="180" cy="100" width="40" height="40" rx="10" fill="#F0CBDD" opacity="0.7"/>
  <path d="M350 180 C360 170 360 150 350 140 C340 130 320 130 310 140" stroke="#F0CBDD" stroke-width="10" stroke-linecap="round" opacity="0.7"/>
</svg>
