<?xml version="1.0" encoding="UTF-8"?>
<svg width="100" height="100" viewBox="0 0 100 100" fill="none" xmlns="http://www.w3.org/2000/svg">
  <!-- Pan tostado -->
  <rect x="10" y="20" width="80" height="60" rx="10" fill="#F5DEB3"/>
  <rect x="15" y="25" width="70" height="50" rx="8" fill="#E8C9A3"/>
  
  <!-- Textura del pan -->
  <circle cx="25" cy="35" r="2" fill="#D4B48C"/>
  <circle cx="45" cy="30" r="2" fill="#D4B48C"/>
  <circle cx="65" cy="40" r="2" fill="#D4B48C"/>
  <circle cx="35" cy="50" r="2" fill="#D4B48C"/>
  <circle cx="75" cy="55" r="2" fill="#D4B48C"/>
  <circle cx="55" cy="65" r="2" fill="#D4B48C"/>
  <circle cx="25" cy="70" r="2" fill="#D4B48C"/>
  
  <!-- Aguacate -->
  <ellipse cx="50" cy="45" rx="30" ry="15" fill="#4CAF50"/>
  <ellipse cx="50" cy="45" rx="25" ry="12" fill="#8BC34A"/>
  
  <!-- Textura del aguacate -->
  <path d="M40 40 Q50 35 60 40 Q50 50 40 40 Z" fill="#4CAF50"/>
  <path d="M35 45 Q45 40 55 45 Q45 55 35 45 Z" fill="#4CAF50"/>
  <path d="M45 50 Q55 45 65 50 Q55 60 45 50 Z" fill="#4CAF50"/>
  
  <!-- Semilla del aguacate -->
  <circle cx="50" cy="45" r="5" fill="#795548"/>
  <circle cx="50" cy="45" r="3" fill="#8D6E63"/>
  
  <!-- Sal -->
  <circle cx="40" cy="35" r="1" fill="white"/>
  <circle cx="60" cy="35" r="1" fill="white"/>
  <circle cx="45" cy="55" r="1" fill="white"/>
  <circle cx="55" cy="55" r="1" fill="white"/>
  
  <!-- Pimienta -->
  <circle cx="42" cy="42" r="0.8" fill="black"/>
  <circle cx="58" cy="48" r="0.8" fill="black"/>
  <circle cx="50" cy="38" r="0.8" fill="black"/>
</svg>
