<?xml version="1.0" encoding="UTF-8"?>
<svg width="414" height="896" viewBox="0 0 414 896" fill="none" xmlns="http://www.w3.org/2000/svg">
  <!-- Background -->
  <rect width="414" height="896" fill="#FFFFFF"/>
  
  <!-- Decorative shapes -->
  <path d="M60 120C80 100 120 140 100 180C80 220 20 200 40 160C60 120 40 140 60 120Z" fill="#E57373" opacity="0.5"/>
  <path d="M350 150C380 130 400 170 380 200C360 230 320 210 330 180C340 150 320 170 350 150Z" fill="#FF9800" opacity="0.5"/>
  <path d="M280 250C310 230 330 270 310 300C290 330 250 310 260 280C270 250 250 270 280 250Z" fill="#FFCC80" opacity="0.3"/>
  <path d="M100 300C130 280 150 320 130 350C110 380 70 360 80 330C90 300 70 320 100 300Z" fill="#F48FB1" opacity="0.4"/>
  <path d="M200 200C230 180 250 220 230 250C210 280 170 260 180 230C190 200 170 220 200 200Z" fill="#CE93D8" opacity="0.3"/>
  
  <!-- Person silhouette -->
  <path d="M200 300C215 300 230 285 230 270C230 255 215 240 200 240C185 240 170 255 170 270C170 285 185 300 200 300Z" fill="#FF7043"/>
  <path d="M200 300L180 400L160 500H240L220 400L200 300Z" fill="#3949AB"/>
  <path d="M160 500L150 600H170L180 500H160Z" fill="#3949AB"/>
  <path d="M240 500L230 600H250L260 500H240Z" fill="#3949AB"/>
  <path d="M150 600L145 650H175L170 600H150Z" fill="#795548"/>
  <path d="M230 600L225 650H255L250 600H230Z" fill="#795548"/>
  <path d="M180 350L150 380L160 400L190 370L180 350Z" fill="#FF7043"/>
  <path d="M220 350L250 380L240 400L210 370L220 350Z" fill="#FF7043"/>
  <path d="M190 270C195 270 200 265 200 260C200 255 195 250 190 250C185 250 180 255 180 260C180 265 185 270 190 270Z" fill="#FFAB91"/>
  <path d="M210 270C215 270 220 265 220 260C220 255 215 250 210 250C205 250 200 255 200 260C200 265 205 270 210 270Z" fill="#FFAB91"/>
  <path d="M200 280C205 280 210 275 210 270C210 265 205 260 200 260C195 260 190 265 190 270C190 275 195 280 200 280Z" fill="#FFAB91"/>
  <path d="M190 290H210L205 300H195L190 290Z" fill="#FFAB91"/>
  <path d="M195 260H205V270H195V260Z" fill="#FFAB91"/>
  <path d="M190 250H210V260H190V250Z" fill="#FF5722"/>
</svg>
