<?xml version="1.0" encoding="UTF-8"?>
<svg width="400" height="200" viewBox="0 0 400 200" fill="none" xmlns="http://www.w3.org/2000/svg">
  <!-- Background -->
  <rect width="400" height="200" rx="16" fill="#F5F5F5"/>
  
  <!-- Dumbbell icon -->
  <g transform="translate(175, 75)">
    <path d="M50 25C50 38.8071 38.8071 50 25 50C11.1929 50 0 38.8071 0 25C0 11.1929 11.1929 0 25 0C38.8071 0 50 11.1929 50 25Z" fill="#FDA758" opacity="0.2"/>
    <path d="M35 17.5H32.5V12.5C32.5 11.8096 31.9404 11.25 31.25 11.25H28.75C28.0596 11.25 27.5 11.8096 27.5 12.5V17.5H22.5V12.5C22.5 11.8096 21.9404 11.25 21.25 11.25H18.75C18.0596 11.25 17.5 11.8096 17.5 12.5V17.5H15C14.3096 17.5 13.75 18.0596 13.75 18.75V31.25C13.75 31.9404 14.3096 32.5 15 32.5H17.5V37.5C17.5 38.1904 18.0596 38.75 18.75 38.75H21.25C21.9404 38.75 22.5 38.1904 22.5 37.5V32.5H27.5V37.5C27.5 38.1904 28.0596 38.75 28.75 38.75H31.25C31.9404 38.75 32.5 38.1904 32.5 37.5V32.5H35C35.6904 32.5 36.25 31.9404 36.25 31.25V18.75C36.25 18.0596 35.6904 17.5 35 17.5Z" stroke="#573353" stroke-width="2" stroke-linecap="round" stroke-linejoin="round"/>
  </g>
  
  <!-- Text -->
  <text x="200" y="150" font-family="Arial" font-size="14" font-weight="bold" fill="#573353" text-anchor="middle">Exercise Placeholder</text>
</svg>
