<?xml version="1.0" encoding="UTF-8"?>
<svg width="23" height="23" viewBox="0 0 23 23" fill="none" xmlns="http://www.w3.org/2000/svg">
  <path d="M22.54 11.761C22.54 11.009 22.4736 10.2571 22.3408 9.52571H11.5V13.8429H17.6891C17.4236 15.2714 16.6109 16.4786 15.3736 17.2914V20.1429H19.1045C21.2827 18.1429 22.54 15.2286 22.54 11.761Z" fill="#4285F4"/>
  <path d="M11.5 23C14.6055 23 17.2055 21.9857 19.1055 20.1429L15.3745 17.2914C14.3455 17.9857 13.0218 18.4286 11.5 18.4286C8.49636 18.4286 5.96727 16.4 5.06364 13.6H1.22727V16.5429C3.11818 20.3714 7.00455 23 11.5 23Z" fill="#34A853"/>
  <path d="M5.06364 13.6C4.83636 12.9143 4.70909 12.1714 4.70909 11.5C4.70909 10.8286 4.83636 10.0857 5.06364 9.4V6.45715H1.22727C0.445455 8.01429 0 9.70001 0 11.5C0 13.3 0.445455 14.9857 1.22727 16.5429L5.06364 13.6Z" fill="#FBBC05"/>
  <path d="M11.5 4.57143C13.1927 4.57143 14.7145 5.15714 15.9218 6.30857L19.2291 3.00143C17.2055 1.14286 14.6055 0 11.5 0C7.00455 0 3.11818 2.62857 1.22727 6.45714L5.06364 9.4C5.96727 6.6 8.49636 4.57143 11.5 4.57143Z" fill="#EA4335"/>
</svg>
