<?xml version="1.0" encoding="UTF-8"?>
<svg width="160" height="160" viewBox="0 0 160 160" fill="none" xmlns="http://www.w3.org/2000/svg">
  <circle cx="80" cy="80" r="80" fill="#FFDFC8"/>
  <path d="M80 40C57.9086 40 40 57.9086 40 80C40 102.091 57.9086 120 80 120C102.091 120 120 102.091 120 80C120 57.9086 102.091 40 80 40Z" fill="#FDA758"/>
  <path d="M80 60C68.9543 60 60 68.9543 60 80C60 91.0457 68.9543 100 80 100C91.0457 100 100 91.0457 100 80C100 68.9543 91.0457 60 80 60Z" fill="white"/>
  <path d="M80 70C74.4772 70 70 74.4772 70 80C70 85.5228 74.4772 90 80 90C85.5228 90 90 85.5228 90 80C90 74.4772 85.5228 70 80 70Z" fill="#573353"/>
  <path d="M80 75C77.2386 75 75 77.2386 75 80C75 82.7614 77.2386 85 80 85C82.7614 85 85 82.7614 85 80C85 77.2386 82.7614 75 80 75Z" fill="white"/>
  <path d="M100 50C94.4772 50 90 54.4772 90 60C90 65.5228 94.4772 70 100 70C105.523 70 110 65.5228 110 60C110 54.4772 105.523 50 100 50Z" fill="#573353"/>
  <path d="M100 55C97.2386 55 95 57.2386 95 60C95 62.7614 97.2386 65 100 65C102.761 65 105 62.7614 105 60C105 57.2386 102.761 55 100 55Z" fill="white"/>
  <path d="M60 50C54.4772 50 50 54.4772 50 60C50 65.5228 54.4772 70 60 70C65.5228 70 70 65.5228 70 60C70 54.4772 65.5228 50 60 50Z" fill="#573353"/>
  <path d="M60 55C57.2386 55 55 57.2386 55 60C55 62.7614 57.2386 65 60 65C62.7614 65 65 62.7614 65 60C65 57.2386 62.7614 55 60 55Z" fill="white"/>
</svg>
