<?xml version="1.0" encoding="UTF-8"?>
<svg width="414" height="190" viewBox="0 0 414 190" fill="none" xmlns="http://www.w3.org/2000/svg">
  <!-- Background -->
  <rect width="414" height="190" rx="24" fill="#FFF3E9"/>
  
  <!-- Calendar grid -->
  <rect x="40" y="60" width="334" height="100" rx="12" fill="white" stroke="#E6E6E6" stroke-width="1"/>
  
  <!-- Calendar days -->
  <g fill="#573353" opacity="0.8">
    <text x="60" y="85" font-family="Arial" font-size="12" font-weight="bold">Mon</text>
    <text x="110" y="85" font-family="Arial" font-size="12" font-weight="bold">Tue</text>
    <text x="160" y="85" font-family="Arial" font-size="12" font-weight="bold">Wed</text>
    <text x="210" y="85" font-family="Arial" font-size="12" font-weight="bold">Thu</text>
    <text x="260" y="85" font-family="Arial" font-size="12" font-weight="bold">Fri</text>
    <text x="310" y="85" font-family="Arial" font-size="12" font-weight="bold">Sat</text>
    <text x="360" y="85" font-family="Arial" font-size="12" font-weight="bold">Sun</text>
  </g>
  
  <!-- Habit tracking circles -->
  <circle cx="60" cy="120" r="15" fill="#FDA758"/>
  <circle cx="110" cy="120" r="15" fill="#FDA758"/>
  <circle cx="160" cy="120" r="15" fill="#FDA758"/>
  <circle cx="210" cy="120" r="15" fill="#F5F5F5" stroke="#FDA758" stroke-width="2"/>
  <circle cx="260" cy="120" r="15" fill="#F5F5F5" stroke="#FDA758" stroke-width="2"/>
  <circle cx="310" cy="120" r="15" fill="#8C80F8"/>
  <circle cx="360" cy="120" r="15" fill="#8C80F8"/>
  
  <!-- Check marks in completed circles -->
  <path d="M53 120L58 125L67 116" stroke="white" stroke-width="2" stroke-linecap="round" stroke-linejoin="round"/>
  <path d="M103 120L108 125L117 116" stroke="white" stroke-width="2" stroke-linecap="round" stroke-linejoin="round"/>
  <path d="M153 120L158 125L167 116" stroke="white" stroke-width="2" stroke-linecap="round" stroke-linejoin="round"/>
  <path d="M303 120L308 125L317 116" stroke="white" stroke-width="2" stroke-linecap="round" stroke-linejoin="round"/>
  <path d="M353 120L358 125L367 116" stroke="white" stroke-width="2" stroke-linecap="round" stroke-linejoin="round"/>
  
  <!-- Title -->
  <text x="207" y="40" font-family="Arial" font-size="18" font-weight="bold" fill="#573353" text-anchor="middle">Habit Tracking</text>
</svg>
