<?xml version="1.0" encoding="UTF-8"?>
<svg width="160" height="160" viewBox="0 0 160 160" fill="none" xmlns="http://www.w3.org/2000/svg">
  <!-- Target/Goal visualization -->
  <circle cx="80" cy="80" r="60" fill="white" stroke="#573353" stroke-width="2"/>
  <circle cx="80" cy="80" r="45" fill="#DDDCFE" stroke="#573353" stroke-width="2"/>
  <circle cx="80" cy="80" r="30" fill="#B1AFE9" stroke="#573353" stroke-width="2"/>
  <circle cx="80" cy="80" r="15" fill="#1B237E" stroke="#573353" stroke-width="2"/>
  
  <!-- Arrow hitting target -->
  <line x1="25" y1="125" x2="70" y2="80" stroke="#573353" stroke-width="3" stroke-linecap="round"/>
  <polygon points="70,80 65,90 75,85" fill="#573353"/>
  
  <!-- Stars/achievements -->
  <path d="M120 40L122.5 45L128 46L124 50L125 55L120 52.5L115 55L116 50L112 46L117.5 45L120 40Z" fill="#FEA800" stroke="#573353" stroke-width="1.5"/>
  <path d="M140 70L142.5 75L148 76L144 80L145 85L140 82.5L135 85L136 80L132 76L137.5 75L140 70Z" fill="#FEA800" stroke="#573353" stroke-width="1.5"/>
  <path d="M110 110L112.5 115L118 116L114 120L115 125L110 122.5L105 125L106 120L102 116L107.5 115L110 110Z" fill="#FEA800" stroke="#573353" stroke-width="1.5"/>
  
  <!-- Flag at the top -->
  <line x1="80" y1="10" x2="80" y2="30" stroke="#573353" stroke-width="2" stroke-linecap="round"/>
  <path d="M80 10L100 15L80 20" fill="#FF6767" stroke="#573353" stroke-width="1.5"/>
</svg>
