<?xml version="1.0" encoding="UTF-8" standalone="no"?>
<svg width="414" height="896" viewBox="0 0 414 896" fill="none" xmlns="http://www.w3.org/2000/svg">
  <!-- Background elements -->
  <path d="M217 50 C250 50 300 80 320 120 C340 160 330 220 300 250 C270 280 230 290 190 280 C150 270 120 240 100 200 C80 160 90 100 120 70 C150 40 184 50 217 50Z" fill="#FFF3E9" opacity="0.3"/>
  
  <!-- Decorative circles -->
  <circle cx="50" cy="150" r="30" fill="#F0CBDD" opacity="0.2"/>
  <circle cx="350" cy="100" r="40" fill="#F0CBDD" opacity="0.15"/>
  <circle cx="300" cy="300" r="50" fill="#F0CBDD" opacity="0.1"/>
  <circle cx="100" cy="400" r="60" fill="#F0CBDD" opacity="0.05"/>
  
  <!-- Decorative shapes -->
  <rect x="320" y="200" width="60" height="60" rx="10" fill="#FDA758" opacity="0.1"/>
  <rect x="30" y="300" width="40" height="40" rx="8" fill="#FDA758" opacity="0.08"/>
  <rect x="250" y="450" width="30" height="30" rx="6" fill="#FDA758" opacity="0.12"/>
  
  <!-- Curved lines -->
  <path d="M0 100 C50 120 100 80 150 100 C200 120 250 80 300 100 C350 120 400 80 450 100" stroke="#F0CBDD" stroke-width="2" opacity="0.2"/>
  <path d="M-50 200 C0 220 50 180 100 200 C150 220 200 180 250 200 C300 220 350 180 400 200" stroke="#F0CBDD" stroke-width="2" opacity="0.15"/>
  <path d="M0 300 C50 320 100 280 150 300 C200 320 250 280 300 300 C350 320 400 280 450 300" stroke="#F0CBDD" stroke-width="2" opacity="0.1"/>
  
  <!-- Dots pattern -->
  <g opacity="0.2">
    <circle cx="50" cy="500" r="2" fill="#573353"/>
    <circle cx="70" cy="500" r="2" fill="#573353"/>
    <circle cx="90" cy="500" r="2" fill="#573353"/>
    <circle cx="110" cy="500" r="2" fill="#573353"/>
    <circle cx="130" cy="500" r="2" fill="#573353"/>
    <circle cx="150" cy="500" r="2" fill="#573353"/>
    <circle cx="170" cy="500" r="2" fill="#573353"/>
    <circle cx="190" cy="500" r="2" fill="#573353"/>
    <circle cx="210" cy="500" r="2" fill="#573353"/>
    <circle cx="230" cy="500" r="2" fill="#573353"/>
    <circle cx="250" cy="500" r="2" fill="#573353"/>
    <circle cx="270" cy="500" r="2" fill="#573353"/>
    <circle cx="290" cy="500" r="2" fill="#573353"/>
    <circle cx="310" cy="500" r="2" fill="#573353"/>
    <circle cx="330" cy="500" r="2" fill="#573353"/>
    <circle cx="350" cy="500" r="2" fill="#573353"/>
    
    <circle cx="50" cy="520" r="2" fill="#573353"/>
    <circle cx="70" cy="520" r="2" fill="#573353"/>
    <circle cx="90" cy="520" r="2" fill="#573353"/>
    <circle cx="110" cy="520" r="2" fill="#573353"/>
    <circle cx="130" cy="520" r="2" fill="#573353"/>
    <circle cx="150" cy="520" r="2" fill="#573353"/>
    <circle cx="170" cy="520" r="2" fill="#573353"/>
    <circle cx="190" cy="520" r="2" fill="#573353"/>
    <circle cx="210" cy="520" r="2" fill="#573353"/>
    <circle cx="230" cy="520" r="2" fill="#573353"/>
    <circle cx="250" cy="520" r="2" fill="#573353"/>
    <circle cx="270" cy="520" r="2" fill="#573353"/>
    <circle cx="290" cy="520" r="2" fill="#573353"/>
    <circle cx="310" cy="520" r="2" fill="#573353"/>
    <circle cx="330" cy="520" r="2" fill="#573353"/>
    <circle cx="350" cy="520" r="2" fill="#573353"/>
    
    <circle cx="50" cy="540" r="2" fill="#573353"/>
    <circle cx="70" cy="540" r="2" fill="#573353"/>
    <circle cx="90" cy="540" r="2" fill="#573353"/>
    <circle cx="110" cy="540" r="2" fill="#573353"/>
    <circle cx="130" cy="540" r="2" fill="#573353"/>
    <circle cx="150" cy="540" r="2" fill="#573353"/>
    <circle cx="170" cy="540" r="2" fill="#573353"/>
    <circle cx="190" cy="540" r="2" fill="#573353"/>
    <circle cx="210" cy="540" r="2" fill="#573353"/>
    <circle cx="230" cy="540" r="2" fill="#573353"/>
    <circle cx="250" cy="540" r="2" fill="#573353"/>
    <circle cx="270" cy="540" r="2" fill="#573353"/>
    <circle cx="290" cy="540" r="2" fill="#573353"/>
    <circle cx="310" cy="540" r="2" fill="#573353"/>
    <circle cx="330" cy="540" r="2" fill="#573353"/>
    <circle cx="350" cy="540" r="2" fill="#573353"/>
  </g>
</svg>
