<?xml version="1.0" encoding="UTF-8" standalone="no"?>
<svg width="434" height="300" viewBox="0 0 434 300" fill="none" xmlns="http://www.w3.org/2000/svg">
  <!-- Background elements -->
  <path d="M217 50 C250 50 300 80 320 120 C340 160 330 220 300 250 C270 280 230 290 190 280 C150 270 120 240 100 200 C80 160 90 100 120 70 C150 40 184 50 217 50Z" fill="#FFF3E9" opacity="0.3"/>
  
  <!-- Mail -->
  <g transform="translate(220, 100)">
    <rect x="0" y="0" width="80" height="60" rx="5" fill="#FBB666"/>
    <rect x="0" y="0" width="80" height="20" rx="5" fill="#F89E44"/>
    <path d="M0 5 C0 2.23858 2.23858 0 5 0H75C77.7614 0 80 2.23858 80 5V20H0V5Z" fill="#F89E44"/>
    <path d="M0 20L40 40L80 20" stroke="#F69241" stroke-width="2"/>
  </g>
  
  <!-- Clock -->
  <g transform="translate(150, 80)">
    <circle cx="25" cy="25" r="25" fill="#E3E0FD"/>
    <circle cx="25" cy="25" r="22" fill="#FFFFFF" stroke="#19207D" stroke-width="1"/>
    <line x1="25" y1="25" x2="25" y2="15" stroke="#19207D" stroke-width="1.5" stroke-linecap="round"/>
    <line x1="25" y1="25" x2="35" y2="25" stroke="#19207D" stroke-width="1.5" stroke-linecap="round"/>
  </g>
  
  <!-- Card -->
  <g transform="translate(180, 150)">
    <rect x="0" y="0" width="100" height="60" rx="8" fill="#ECEEFB"/>
    <rect x="10" y="15" width="50" height="5" rx="2" fill="#827FCB"/>
    <rect x="10" y="25" width="80" height="5" rx="2" fill="#827FCB" opacity="0.5"/>
    <rect x="10" y="35" width="60" height="5" rx="2" fill="#827FCB" opacity="0.3"/>
  </g>
  
  <!-- Person -->
  <g transform="translate(120, 120)">
    <!-- Head -->
    <circle cx="25" cy="25" r="20" fill="#F27C7D"/>
    <circle cx="25" cy="25" r="15" fill="#EC4728"/>
    
    <!-- Eyes -->
    <circle cx="20" cy="20" r="3" fill="#461C34"/>
    <circle cx="30" cy="20" r="3" fill="#461C34"/>
    
    <!-- Mouth -->
    <path d="M20 30 C23 33 27 33 30 30" stroke="#F05A53" stroke-width="2" stroke-linecap="round"/>
    
    <!-- Body -->
    <path d="M15 45 L35 45 L40 85 L10 85 Z" fill="#FBB666"/>
    <path d="M15 45 L25 45 L20 85 L10 85 Z" fill="#F69241"/>
    
    <!-- Arms -->
    <path d="M15 50 C10 55 8 65 10 75" stroke="#F89E44" stroke-width="8" stroke-linecap="round"/>
    <path d="M35 50 C40 55 42 65 40 75" stroke="#F89E44" stroke-width="8" stroke-linecap="round"/>
  </g>
  
  <!-- Decorative elements -->
  <circle cx="320" cy="70" r="15" fill="#F0CBDD" opacity="0.7"/>
  <circle cx="100" cy="200" r="20" fill="#F0CBDD" opacity="0.5"/>
  <rect x="350" y="150" width="30" height="30" rx="5" fill="#F0CBDD" opacity="0.5"/>
  <path d="M80 100 C70 90 70 70 80 60 C90 50 110 50 120 60" stroke="#F0CBDD" stroke-width="5" stroke-linecap="round" opacity="0.7"/>
</svg>
