<?xml version="1.0" encoding="UTF-8" standalone="no"?>
<svg width="434" height="300" viewBox="0 0 434 300" fill="none" xmlns="http://www.w3.org/2000/svg">
  <!-- Background elements -->
  <path d="M217 50 C250 50 300 80 320 120 C340 160 330 220 300 250 C270 280 230 290 190 280 C150 270 120 240 100 200 C80 160 90 100 120 70 C150 40 184 50 217 50Z" fill="#FFF3E9" opacity="0.3"/>
  
  <!-- XMLID 3 -->
  <g transform="translate(150, 80)">
    <!-- Head -->
    <circle cx="25" cy="25" r="20" fill="#F27C7D"/>
    <path d="M25 5 C15 5 5 15 5 25 C5 35 15 45 25 45" fill="#EC4728"/>
    
    <!-- Eyes -->
    <circle cx="20" cy="20" r="3" fill="#461C34"/>
    <circle cx="30" cy="20" r="3" fill="#461C34"/>
    
    <!-- Mouth -->
    <path d="M20 30 C23 33 27 33 30 30" stroke="#F05A53" stroke-width="2" stroke-linecap="round"/>
    
    <!-- Body -->
    <path d="M15 45 L35 45 L40 85 L10 85 Z" fill="#FBB666"/>
    <path d="M15 45 L25 45 L20 85 L10 85 Z" fill="#F69241"/>
    <rect x="20" y="55" width="10" height="20" rx="2" fill="#B22878"/>
    
    <!-- Arms -->
    <path d="M15 50 C10 55 8 65 10 75" stroke="#F89E44" stroke-width="8" stroke-linecap="round"/>
    <path d="M35 50 C40 55 42 65 40 75" stroke="#F89E44" stroke-width="8" stroke-linecap="round"/>
  </g>
  
  <!-- XMLID 31 -->
  <g transform="translate(220, 100)">
    <path d="M0 0 L50 0 L50 30 L0 30 Z" fill="#F1CCDE"/>
    <path d="M10 10 L40 10 L40 40 L10 40 Z" fill="#F1CCDE" opacity="0.7"/>
  </g>
  
  <!-- XMLID 101 -->
  <g transform="translate(100, 120)">
    <path d="M0 0 L30 0 L30 30 L0 30 Z" fill="#F1CCDE"/>
  </g>
  
  <!-- XMLID 127 -->
  <g transform="translate(180, 120)">
    <path d="M0 0 L40 0 L40 40 L0 40 Z" fill="#F1CCDE"/>
  </g>
  
  <!-- XMLID 139 -->
  <g transform="translate(120, 150)">
    <path d="M0 0 L30 0 L30 30 L0 30 Z" fill="#FDC07C"/>
  </g>
  
  <!-- XMLID 133 -->
  <g transform="translate(150, 100)">
    <path d="M0 0 L20 0 L20 20 L0 20 Z" fill="#8B1D56"/>
  </g>
  
  <!-- XMLID 1 -->
  <g transform="translate(170, 120)">
    <path d="M0 0 L30 0 L30 50 L0 50 Z" fill="#C53027"/>
  </g>
  
  <!-- XMLID 49 -->
  <g transform="translate(250, 150)">
    <circle cx="10" cy="10" r="10" fill="#D02527"/>
  </g>
  
  <!-- XMLID 19 -->
  <g transform="translate(270, 150)">
    <path d="M0 0 L30 0 L30 30 L0 30 Z" fill="#F1AD66"/>
  </g>
  
  <!-- XMLID 71 -->
  <g transform="translate(220, 180)">
    <path d="M0 0 L20 0 L20 20 L0 20 Z" fill="#8B1D56"/>
  </g>
  
  <!-- XMLID 102 -->
  <g transform="translate(300, 180)">
    <path d="M0 0 L30 0 L30 30 L0 30 Z" fill="#F3704A"/>
  </g>
  
  <!-- XMLID 95 -->
  <g transform="translate(250, 200)">
    <path d="M0 0 L30 0 L30 30 L0 30 Z" fill="#FDC07C"/>
  </g>
  
  <!-- XMLID 99 -->
  <g transform="translate(280, 200)">
    <path d="M0 0 L20 0 L20 20 L0 20 Z" fill="#292A69"/>
  </g>
  
  <!-- XMLID 129 -->
  <g transform="translate(200, 80)">
    <path d="M0 0 L20 0 L20 20 L0 20 Z" fill="#292A69"/>
  </g>
  
  <!-- XMLID 136 -->
  <g transform="translate(170, 80)">
    <path d="M0 0 L20 0 L20 20 L0 20 Z" fill="#FDC07C"/>
  </g>
  
  <!-- Lock Icon -->
  <g transform="translate(217, 140)">
    <rect x="-15" y="0" width="30" height="25" rx="5" fill="#FDA758"/>
    <path d="M-10 0 L-10 -10 C-10 -15 -5 -20 0 -20 C5 -20 10 -15 10 -10 L10 0" stroke="#573353" stroke-width="3" stroke-linecap="round"/>
    <circle cx="0" cy="12" r="5" fill="#573353"/>
  </g>
</svg>
